<mxfile host="app.diagrams.net" agent="Mozilla/5.0 (Macintosh; Intel Mac OS X 10_15_7) AppleWebKit/537.36 (KHTML, like Gecko) Chrome/128.0.0.0 Safari/537.36" version="24.7.7">
  <diagram id="C5RBs43oDa-KdzZeNtuy" name="Page-1">
    <mxGraphModel dx="714" dy="493" grid="1" gridSize="10" guides="1" tooltips="1" connect="1" arrows="1" fold="1" page="1" pageScale="1" pageWidth="827" pageHeight="1169" math="0" shadow="0">
      <root>
        <mxCell id="WIyWlLk6GJQsqaUBKTNV-0" />
        <mxCell id="WIyWlLk6GJQsqaUBKTNV-1" parent="WIyWlLk6GJQsqaUBKTNV-0" />
        <mxCell id="6i6t7Rb_xnvpxsrI3Ybj-5" value="" style="edgeStyle=orthogonalEdgeStyle;rounded=0;orthogonalLoop=1;jettySize=auto;html=1;" edge="1" parent="WIyWlLk6GJQsqaUBKTNV-1" source="6i6t7Rb_xnvpxsrI3Ybj-0" target="6i6t7Rb_xnvpxsrI3Ybj-1">
          <mxGeometry relative="1" as="geometry" />
        </mxCell>
        <mxCell id="6i6t7Rb_xnvpxsrI3Ybj-0" value="文档" style="shape=note;whiteSpace=wrap;html=1;backgroundOutline=1;darkOpacity=0.05;" vertex="1" parent="WIyWlLk6GJQsqaUBKTNV-1">
          <mxGeometry x="180" y="190" width="80" height="100" as="geometry" />
        </mxCell>
        <mxCell id="6i6t7Rb_xnvpxsrI3Ybj-6" style="edgeStyle=orthogonalEdgeStyle;rounded=0;orthogonalLoop=1;jettySize=auto;html=1;exitX=0.25;exitY=1;exitDx=0;exitDy=0;entryX=0.25;entryY=0;entryDx=0;entryDy=0;" edge="1" parent="WIyWlLk6GJQsqaUBKTNV-1" source="6i6t7Rb_xnvpxsrI3Ybj-1" target="6i6t7Rb_xnvpxsrI3Ybj-2">
          <mxGeometry relative="1" as="geometry" />
        </mxCell>
        <mxCell id="6i6t7Rb_xnvpxsrI3Ybj-1" value="anythingLLM" style="rounded=1;whiteSpace=wrap;html=1;" vertex="1" parent="WIyWlLk6GJQsqaUBKTNV-1">
          <mxGeometry x="310" y="210" width="120" height="60" as="geometry" />
        </mxCell>
        <mxCell id="6i6t7Rb_xnvpxsrI3Ybj-7" style="edgeStyle=orthogonalEdgeStyle;rounded=0;orthogonalLoop=1;jettySize=auto;html=1;exitX=0.75;exitY=0;exitDx=0;exitDy=0;entryX=0.75;entryY=1;entryDx=0;entryDy=0;" edge="1" parent="WIyWlLk6GJQsqaUBKTNV-1" source="6i6t7Rb_xnvpxsrI3Ybj-2" target="6i6t7Rb_xnvpxsrI3Ybj-1">
          <mxGeometry relative="1" as="geometry" />
        </mxCell>
        <mxCell id="6i6t7Rb_xnvpxsrI3Ybj-9" style="edgeStyle=orthogonalEdgeStyle;rounded=0;orthogonalLoop=1;jettySize=auto;html=1;exitX=1;exitY=0.25;exitDx=0;exitDy=0;entryX=0;entryY=0.25;entryDx=0;entryDy=0;" edge="1" parent="WIyWlLk6GJQsqaUBKTNV-1" source="6i6t7Rb_xnvpxsrI3Ybj-2" target="6i6t7Rb_xnvpxsrI3Ybj-4">
          <mxGeometry relative="1" as="geometry" />
        </mxCell>
        <mxCell id="6i6t7Rb_xnvpxsrI3Ybj-2" value="ollama" style="rounded=1;whiteSpace=wrap;html=1;" vertex="1" parent="WIyWlLk6GJQsqaUBKTNV-1">
          <mxGeometry x="310" y="320" width="120" height="60" as="geometry" />
        </mxCell>
        <mxCell id="6i6t7Rb_xnvpxsrI3Ybj-3" value="lanceDB" style="shape=cylinder3;whiteSpace=wrap;html=1;boundedLbl=1;backgroundOutline=1;size=15;" vertex="1" parent="WIyWlLk6GJQsqaUBKTNV-1">
          <mxGeometry x="520" y="200" width="60" height="80" as="geometry" />
        </mxCell>
        <mxCell id="6i6t7Rb_xnvpxsrI3Ybj-10" style="edgeStyle=orthogonalEdgeStyle;rounded=0;orthogonalLoop=1;jettySize=auto;html=1;exitX=0;exitY=0.75;exitDx=0;exitDy=0;entryX=1;entryY=0.75;entryDx=0;entryDy=0;" edge="1" parent="WIyWlLk6GJQsqaUBKTNV-1" source="6i6t7Rb_xnvpxsrI3Ybj-4" target="6i6t7Rb_xnvpxsrI3Ybj-2">
          <mxGeometry relative="1" as="geometry" />
        </mxCell>
        <mxCell id="6i6t7Rb_xnvpxsrI3Ybj-4" value="nomic" style="rounded=1;whiteSpace=wrap;html=1;" vertex="1" parent="WIyWlLk6GJQsqaUBKTNV-1">
          <mxGeometry x="490" y="320" width="120" height="60" as="geometry" />
        </mxCell>
        <mxCell id="6i6t7Rb_xnvpxsrI3Ybj-8" style="edgeStyle=orthogonalEdgeStyle;rounded=0;orthogonalLoop=1;jettySize=auto;html=1;exitX=1;exitY=0.5;exitDx=0;exitDy=0;entryX=0;entryY=0.5;entryDx=0;entryDy=0;entryPerimeter=0;" edge="1" parent="WIyWlLk6GJQsqaUBKTNV-1" source="6i6t7Rb_xnvpxsrI3Ybj-1" target="6i6t7Rb_xnvpxsrI3Ybj-3">
          <mxGeometry relative="1" as="geometry" />
        </mxCell>
      </root>
    </mxGraphModel>
  </diagram>
</mxfile>
